<?xml version="1.0" standalone="no"?>
<!DOCTYPE svg PUBLIC "-//W3C//DTD SVG 20010904//EN"
 "http://www.w3.org/TR/2001/REC-SVG-20010904/DTD/svg10.dtd">
<svg version="1.0" xmlns="http://www.w3.org/2000/svg"
 width="400.000000pt" height="400.000000pt" viewBox="0 0 400.000000 400.000000"
 preserveAspectRatio="xMidYMid meet">
<metadata>
Created by potrace 1.14, written by Peter Selinger 2001-2017
</metadata>
<g transform="translate(0.000000,400.000000) scale(0.100000,-0.100000)"
fill="#000000" stroke="none">
<path d="M3205 3694 c-176 -113 -444 -219 -763 -302 -62 -16 -122 -38 -132
-47 -34 -31 -70 -102 -92 -182 -58 -214 10 -708 166 -1208 18 -60 32 -113 29
-117 -2 -5 -13 -8 -24 -8 -10 0 -19 -5 -19 -12 0 -6 -10 -2 -22 9 -32 29 -63
43 -110 51 -47 8 -48 10 -77 116 -35 127 -96 197 -159 181 -43 -11 -101 -54
-137 -103 -37 -49 -107 -181 -117 -220 l-6 -22 -57 30 c-31 17 -70 30 -85 30
-19 0 -33 8 -44 25 -18 27 -52 33 -79 12 -15 -11 -25 -43 -43 -153 l-6 -30
-116 0 c-104 1 -122 -2 -166 -23 -27 -13 -69 -44 -94 -67 l-44 -43 4 -68 c3
-60 8 -75 46 -130 l42 -62 -34 -11 c-18 -6 -48 -22 -66 -35 -19 -14 -44 -25
-56 -25 -45 0 -59 -62 -19 -84 11 -6 39 -28 63 -48 30 -25 72 -47 128 -65 64
-20 83 -31 80 -43 -3 -8 -8 -38 -11 -67 -6 -48 -10 -54 -49 -77 -23 -13 -63
-48 -89 -78 -26 -29 -61 -67 -77 -85 -68 -74 -13 -112 160 -112 41 0 84 4 95
8 14 6 32 -1 65 -25 59 -42 187 -85 273 -92 67 -5 76 -9 57 -28 -18 -18 5
-101 44 -159 48 -73 76 -90 147 -90 70 1 119 31 191 120 56 69 93 144 133 265
15 47 30 88 34 92 3 3 68 8 143 10 136 4 137 3 141 -19 3 -18 -1 -25 -20 -29
-13 -4 -29 -17 -33 -30 -5 -13 -17 -24 -27 -24 -19 0 -119 46 -165 77 -15 9
-30 14 -34 10 -25 -24 123 -106 213 -117 36 -5 72 -6 79 -3 20 8 25 41 16 101
l-9 52 69 37 c90 47 130 97 136 169 4 44 0 61 -22 101 -15 26 -23 49 -17 51 5
2 28 17 51 33 47 34 64 68 51 102 -10 25 -75 87 -91 87 -6 0 23 32 64 70 85
81 166 193 192 266 15 43 16 63 8 130 -8 72 -11 80 -36 92 -18 8 -34 10 -44 4
-9 -5 -39 -5 -70 0 -58 9 -178 -7 -259 -34 l-40 -13 -28 95 c-65 223 -157 617
-157 671 0 12 76 54 177 98 110 48 407 141 567 177 143 33 137 25 161 229 9
77 23 185 31 240 16 105 68 314 85 347 7 14 7 23 -2 34 -15 19 -14 19 -94 -32z
m-1138 -1599 c23 -39 46 -110 56 -171 l6 -30 -72 -12 c-39 -7 -116 -30 -169
-52 -54 -22 -105 -37 -114 -33 -49 18 81 257 173 317 56 37 92 31 120 -19z
m-378 -253 c37 -23 45 -33 43 -52 -4 -21 -2 -22 12 -11 9 8 19 11 23 7 3 -3 4
-7 2 -9 -2 -1 -31 -22 -63 -46 l-59 -44 -46 16 c-25 9 -72 20 -103 23 -62 7
-67 14 -52 72 5 19 12 22 30 18 34 -9 73 10 84 40 9 24 14 26 47 21 20 -4 57
-19 82 -35z m1104 -33 c3 -11 19 -25 36 -32 38 -14 40 -41 9 -104 -53 -107
-264 -317 -307 -306 -15 4 -16 12 -7 75 7 56 6 86 -7 142 -8 39 -21 99 -27
134 -6 35 -13 69 -16 76 -4 9 2 12 18 9 13 -2 50 3 83 11 33 8 94 15 136 15
69 1 77 -1 82 -20z m-354 -40 c6 -18 11 -33 11 -35 0 -1 -13 9 -28 24 -29 28
-31 42 -7 42 7 0 18 -14 24 -31z m-1033 -75 c14 -4 29 -24 43 -59 12 -30 29
-59 37 -66 8 -6 3 8 -10 32 -13 24 -27 55 -31 68 -7 24 -7 24 55 17 34 -4 72
-11 85 -16 23 -9 21 -12 -51 -82 -41 -39 -93 -95 -115 -124 -39 -51 -40 -51
-110 -58 -38 -4 -86 -14 -107 -22 -20 -8 -26 -12 -12 -9 52 12 136 25 157 25
20 0 19 -5 -25 -74 l-47 -75 -38 37 c-21 20 -67 78 -102 127 -57 80 -65 95
-65 137 0 30 6 52 17 63 23 23 82 60 118 73 32 11 166 15 201 6z m-281 -386
c10 -18 41 -54 67 -79 l48 -46 -16 -49 c-9 -27 -20 -52 -23 -57 -16 -17 -231
75 -231 98 0 3 7 16 16 30 12 18 13 28 5 44 -6 11 -11 22 -11 25 0 7 102 66
115 66 6 0 19 -15 30 -32z m1527 -16 c14 -9 37 -30 49 -46 21 -26 21 -31 8
-55 -8 -14 -35 -37 -60 -50 l-46 -25 -52 37 c-28 20 -60 37 -71 37 -11 0 -20
3 -20 8 1 6 148 109 160 111 3 0 17 -7 32 -17z m-169 -176 l37 -34 -61 -21
c-33 -11 -59 -17 -57 -13 2 4 12 29 23 55 11 26 20 47 21 47 1 0 17 -15 37
-34z m96 -90 c31 -49 27 -86 -11 -123 -30 -28 -117 -79 -122 -71 -7 10 -66
171 -64 173 6 5 154 53 165 54 6 1 21 -14 32 -33z m-185 -130 c15 -38 24 -72
20 -75 -3 -3 -46 -8 -96 -10 l-90 -3 64 84 c34 47 66 82 70 79 3 -3 18 -37 32
-75z m-1194 -189 c7 -15 10 -30 6 -34 -4 -4 -38 -9 -77 -11 l-69 -4 0 33 c0
18 -7 40 -15 49 -14 15 -11 21 27 65 23 26 56 56 73 66 l30 19 6 -78 c3 -42
12 -89 19 -105z m875 -49 c-23 -76 -73 -176 -116 -232 -64 -82 -112 -116 -167
-116 -37 0 -44 4 -72 45 -17 24 -33 59 -36 77 -4 18 -13 43 -20 55 -13 21 -11
22 35 32 71 15 254 89 314 127 63 39 70 40 62 12z"/>
</g>
</svg>
